Coordinates
version=1
nRows=7
nColumns=33
inDegrees=yes

Units are S.I. units (second, meters, Newtons, ...)
Angles are in degrees.

endheader
time	ground_thorax_rot_x	ground_thorax_rot_y	ground_thorax_rot_z	ground_thorax_tx	ground_thorax_ty	ground_thorax_tz	clav_prot_r	clav_elev_r	scapula_abduction_r	scapula_elevation_r	scapula_upward_rot_r	scapula_winging_r	shoulder_elv_r	plane_of_elev_r	axial_rot_r	elbow_flexion_r	pro_sup_r	wrist_flex_r	wrist_dev_r	clav_prot_l	clav_elev_l	scapula_abduction_l	scapula_elevation_l	scapula_upward_rot_l	scapula_winging_l	shoulder_elv_l	plane_of_elev_l	axial_rot_l	elbow_flexion_l	pro_sup_l	wrist_flex_l	wrist_dev_l
      7.27000000	     39.93811830	      6.82130625	      6.80721716	   -248.01611441	    853.08404053	      6.55411643	     12.20948101	     39.07689215	     37.00905395	     45.00000000	    -32.87486960	   2789.70612940	  -3892.84097205	     32.76598362	     55.14511343	    381.44298661	    115.99573386	     11.39162999	      2.77590005	      9.79829481	    -45.00000000	    -38.86659335	     45.00000000	    -45.00000000	  -1341.32230173	    267.43157942	    137.37640461	   -179.99999979	   1451.41205103	     57.45013830	      2.88124583	    -23.78450128
      7.28000000	     39.84281114	      6.99339883	      6.96793777	   -248.01785633	    852.73936614	      6.60318271	     12.19598648	     39.12504956	     36.85384575	     45.00000000	    -33.37778140	   2789.73152419	  -3892.81926919	     32.96988659	     55.37270676	    381.58093016	    116.01663129	     11.26234470	      3.41991228	      9.66476747	    -45.00000000	    -39.02989909	     45.00000000	    -45.00000000	  -1341.02693756	    267.34081180	    137.11521215	   -179.99999979	   1451.26520902	     57.56733224	      2.40655858	    -23.94166243
      7.29000000	     39.80609294	      6.92910288	      6.98290497	   -247.91999988	    852.39311022	      6.66751756	     12.23853255	     38.99239814	     36.94212248	     45.00000000	    -33.23311500	   2789.76345758	  -3892.87502748	     32.86139773	     55.19683797	    381.53057488	    116.21128096	     11.29799451	      2.96814224	      9.79230437	    -45.00000000	    -38.86744645	     45.00000000	    -45.00000000	  -1341.30013959	    267.39924320	    137.31070597	   -179.99999979	   1451.39658353	     57.71144674	      2.63872371	    -23.79888716
      7.30000000	     39.73661476	      7.06446044	      7.12966260	   -247.74342801	    852.04844965	      6.73160081	     12.24010089	     39.15549367	     36.85629410	     45.00000000	    -33.35436423	   2789.80025439	  -3892.90865470	     32.93208978	     55.19278733	    381.58459627	    116.34490236	     11.29906157	      3.29144942	      9.68527398	    -45.00000000	    -38.98884653	     45.00000000	    -45.00000000	  -1341.09048248	    267.35638667	    137.12707820	   -179.99999979	   1451.35772292	     57.73756659	      2.41225014	    -23.77735458
      7.31000000	     39.75787684	      7.01138446	      7.19854221	   -247.50129043	    851.71133065	      6.79310318	     12.24358878	     38.89780564	     37.00900718	     45.00000000	    -33.26940262	   2789.78492686	  -3892.89654200	     32.85429023	     55.11451793	    381.56240470	    116.54900224	     11.28210575	      2.95848239	      9.80178336	    -45.00000000	    -38.77848019	     45.00000000	    -45.00000000	  -1341.36518657	    267.40220116	    137.33509702	   -179.99999979	   1451.50430476	     57.76149441	      2.51813473	    -23.72935145
      7.32000000	     39.65038855	      7.12904250	      7.30789821	   -247.20690953	    851.38613789	      6.84989850	     12.31013427	     39.33580480	     36.81160308	     45.00000000	    -33.27703645	   2789.80652740	  -3892.96616992	     33.01983523	     55.05028124	    381.59172431	    116.72033361	     11.33781401	      3.25807978	      9.64796962	    -45.00000000	    -39.06074536	     45.00000000	    -45.00000000	  -1341.01321883	    267.36224354	    137.02178317	   -179.99999979	   1451.42148515	     57.72975746	      2.37563853	    -23.64120215
      7.33000000	     39.73898436	      6.88506667	      7.39478503	   -246.87188206	    851.07939349	      6.89966799	     12.14740628	     38.51096735	     37.39385665	     45.00000000	    -33.23144743	   2789.83534943	  -3892.76300772	     32.65109962	     55.08706270	    381.82758278	    116.90640322	     11.31083428	      2.73519674	      9.91133944	    -45.00000000	    -38.53575583	     45.00000000	    -45.00000000	  -1341.61051338	    267.38211636	    137.60737426	   -179.99999979	   1451.70458490	     57.67584864	      2.43939835	    -23.68996524
